<svg xmlns="http://www.w3.org/2000/svg" version="1.1" xmlns:xlink="http://www.w3.org/1999/xlink" xmlns:svgjs="http://svgjs.dev/svgjs" width="1000" height="1000" viewBox="0 0 1000 1000"><rect width="1000" height="1000" fill="#444444"></rect><g transform="matrix(0.7,0,0,0.7,149.5757665182839,406.68899386363796)"><svg viewBox="0 0 396 106" data-background-color="#444444" preserveAspectRatio="xMidYMid meet" height="267" width="1000" xmlns="http://www.w3.org/2000/svg" xmlns:xlink="http://www.w3.org/1999/xlink"><g id="tight-bounds" transform="matrix(1,0,0,1,0.239994941085115,-0.07883012062933403)"><svg viewBox="0 0 395.52 106.1576602412587" height="106.1576602412587" width="395.52"><g><svg viewBox="0 0 582.8919572296319 156.44833725967223" height="106.1576602412587" width="395.52"><g transform="matrix(1,0,0,1,187.37195722963193,45.4766424412785)"><svg viewBox="0 0 395.52 65.49505237711523" height="65.49505237711523" width="395.52"><g id="textblocktransform"><svg viewBox="0 0 395.52 65.49505237711523" height="65.49505237711523" width="395.52" id="textblock"><g><svg viewBox="0 0 395.52 65.49505237711523" height="65.49505237711523" width="395.52"><g transform="matrix(1,0,0,1,0,0)"><svg width="395.52" viewBox="1.5099999904632568 -38.09000015258789 243.09999084472656 40.13999938964844" height="65.49505237711523" data-palette-color="#ffffff"><g class="wordmark-text-0" data-fill-palette-color="primary" id="text-0"><path d="M25.29-25.68L25.29-25.68Q25.29-22.31 23.73-19.63 22.17-16.94 19.58-14.89L19.58-14.89Q20.36-13.72 21.19-12.16 22.02-10.6 22.68-8.86 23.34-7.13 23.75-5.4 24.17-3.66 24.17-2.2L24.17-2.2Q24.17-0.63 23.41 0.61 22.66 1.86 20.85 1.86L20.85 1.86Q19.34 1.86 18.24 0.39 17.14-1.07 16.28-3.1 15.43-5.13 14.72-7.23 14.01-9.33 13.38-10.6L13.38-10.6Q12.5-10.3 11.67-9.94 10.84-9.57 9.96-9.23L9.96-9.23Q9.91-8.15 9.79-6.27 9.67-4.39 9.25-2.54 8.84-0.68 8.01 0.68 7.18 2.05 5.71 2.05L5.71 2.05Q4.1 2.05 3.22 0.73 2.34-0.59 1.98-2.39 1.61-4.2 1.56-6.08 1.51-7.96 1.51-9.03L1.51-9.03Q1.51-11.33 1.61-13.55 1.71-15.77 1.71-18.07L1.71-18.07Q1.71-20.17 1.64-22.27 1.56-24.37 1.56-26.51L1.56-26.51Q1.56-27 1.56-27.76 1.56-28.52 1.64-29.32 1.71-30.13 1.81-30.86 1.9-31.59 2.15-32.03L2.15-32.03Q2.64-33.06 4.37-33.98 6.1-34.91 8.18-35.62 10.25-36.33 12.23-36.74 14.21-37.16 15.19-37.16L15.19-37.16Q17.68-37.16 19.58-36.23 21.48-35.3 22.75-33.72 24.02-32.13 24.66-30.05 25.29-27.98 25.29-25.68ZM16.26-25L16.26-25Q16.26-26.27 15.67-26.93 15.09-27.59 13.77-27.59L13.77-27.59Q12.79-27.59 11.79-27.25 10.79-26.9 9.96-26.46L9.96-26.46Q10.16-22.61 10.11-18.8L10.11-18.8Q11.13-19.14 12.21-19.68 13.28-20.21 14.18-21 15.09-21.78 15.67-22.75 16.26-23.73 16.26-25ZM48.29-7.67L48.29-7.67Q48.29-6.74 47.8-5.86L47.8-5.86Q47.31-5.03 45.51-3.91 43.7-2.78 41.5-1.78 39.3-0.78 37.25-0.07 35.2 0.63 34.23 0.63L34.23 0.63Q33.54 0.63 32.61 0.32 31.69 0 30.76-0.49 29.83-0.98 29.07-1.61 28.32-2.25 27.98-2.83L27.98-2.83Q27.78-3.17 27.61-4.2 27.44-5.22 27.32-6.59 27.19-7.96 27.1-9.5 27-11.04 26.93-12.43 26.85-13.82 26.83-14.89 26.8-15.97 26.8-16.46L26.8-16.46Q26.8-18.26 26.93-20.61 27.05-22.95 27.39-25.32 27.73-27.69 28.39-29.86 29.05-32.03 30.17-33.54L30.17-33.54Q30.52-33.98 31.54-34.47 32.57-34.96 33.96-35.4 35.35-35.84 36.96-36.23 38.57-36.62 40.06-36.89 41.55-37.16 42.77-37.33 43.99-37.5 44.63-37.5L44.63-37.5Q45.36-37.5 46.02-37.18 46.68-36.87 47.14-36.33 47.6-35.79 47.87-35.13 48.14-34.47 48.14-33.74L48.14-33.74Q48.14-33.11 47.97-32.67 47.8-32.23 47.46-31.69L47.46-31.69Q46.97-31.05 45.41-30.18 43.85-29.3 42.01-28.44 40.18-27.59 38.5-26.9 36.81-26.22 36.13-25.93L36.13-25.93Q35.94-24.8 35.72-23.66 35.5-22.51 35.4-21.34L35.4-21.34Q36.91-22.12 38.82-22.8 40.72-23.49 42.43-23.49L42.43-23.49Q45.9-23.49 45.9-20.07L45.9-20.07Q45.9-19.24 45.58-18.6 45.26-17.97 44.75-17.48 44.24-16.99 43.58-16.63 42.92-16.26 42.28-15.92L42.28-15.92Q40.72-15.09 39.01-14.48 37.3-13.87 35.59-13.28L35.59-13.28Q35.5-12.89 35.4-12.43 35.3-11.96 35.3-11.52L35.3-11.52Q35.3-10.84 35.4-10.16 35.5-9.47 35.59-8.79L35.59-8.79Q36.18-8.98 37.47-9.42 38.77-9.86 40.18-10.3 41.6-10.74 42.92-11.06 44.24-11.38 44.87-11.38L44.87-11.38Q45.6-11.38 46.24-11.06 46.87-10.74 47.31-10.23 47.75-9.72 48.02-9.03 48.29-8.35 48.29-7.67ZM71.77-7.67L71.77-7.67Q71.77-6.74 71.28-5.86L71.28-5.86Q70.8-5.03 68.99-3.91 67.18-2.78 64.99-1.78 62.79-0.78 60.74-0.07 58.69 0.63 57.71 0.63L57.71 0.63Q57.03 0.63 56.1 0.32 55.17 0 54.24-0.49 53.32-0.98 52.56-1.61 51.8-2.25 51.46-2.83L51.46-2.83Q51.26-3.17 51.09-4.2 50.92-5.22 50.8-6.59 50.68-7.96 50.58-9.5 50.48-11.04 50.41-12.43 50.34-13.82 50.31-14.89 50.29-15.97 50.29-16.46L50.29-16.46Q50.29-18.26 50.41-20.61 50.53-22.95 50.87-25.32 51.22-27.69 51.87-29.86 52.53-32.03 53.66-33.54L53.66-33.54Q54-33.98 55.02-34.47 56.05-34.96 57.44-35.4 58.83-35.84 60.44-36.23 62.06-36.62 63.54-36.89 65.03-37.16 66.25-37.33 67.48-37.5 68.11-37.5L68.11-37.5Q68.84-37.5 69.5-37.18 70.16-36.87 70.62-36.33 71.09-35.79 71.36-35.13 71.63-34.47 71.63-33.74L71.63-33.74Q71.63-33.11 71.45-32.67 71.28-32.23 70.94-31.69L70.94-31.69Q70.45-31.05 68.89-30.18 67.33-29.3 65.5-28.44 63.67-27.59 61.98-26.9 60.3-26.22 59.61-25.93L59.61-25.93Q59.42-24.8 59.2-23.66 58.98-22.51 58.88-21.34L58.88-21.34Q60.4-22.12 62.3-22.8 64.2-23.49 65.91-23.49L65.91-23.49Q69.38-23.49 69.38-20.07L69.38-20.07Q69.38-19.24 69.06-18.6 68.75-17.97 68.23-17.48 67.72-16.99 67.06-16.63 66.4-16.26 65.77-15.92L65.77-15.92Q64.2-15.09 62.5-14.48 60.79-13.87 59.08-13.28L59.08-13.28Q58.98-12.89 58.88-12.43 58.78-11.96 58.78-11.52L58.78-11.52Q58.78-10.84 58.88-10.16 58.98-9.47 59.08-8.79L59.08-8.79Q59.66-8.98 60.96-9.42 62.25-9.86 63.67-10.3 65.08-10.74 66.4-11.06 67.72-11.38 68.35-11.38L68.35-11.38Q69.09-11.38 69.72-11.06 70.36-10.74 70.8-10.23 71.24-9.72 71.5-9.03 71.77-8.35 71.77-7.67ZM97.26-6.74L97.26-6.74Q97.26-5.52 96.26-4.44 95.26-3.37 93.67-2.49 92.08-1.61 90.13-0.95 88.18-0.29 86.27 0.17 84.37 0.63 82.68 0.88 81 1.12 80.02 1.12L80.02 1.12Q79.09 1.12 78.04 0.95 76.99 0.78 76.31 0.2L76.31 0.2Q75.92-0.1 75.63-1.12 75.33-2.15 75.07-3.56 74.8-4.98 74.6-6.62 74.41-8.25 74.28-9.81 74.16-11.38 74.09-12.7 74.02-14.01 74.02-14.75L74.02-14.75Q74.02-15.97 74.09-17.7 74.16-19.43 74.31-21.41 74.46-23.39 74.7-25.44 74.94-27.49 75.26-29.32 75.58-31.15 76.04-32.62 76.51-34.08 77.04-34.91L77.04-34.91Q77.97-36.23 79.39-36.23L79.39-36.23Q80.36-36.23 81.05-35.57 81.73-34.91 82.15-33.86 82.56-32.81 82.78-31.52 83-30.22 83.1-28.96 83.2-27.69 83.2-26.61 83.2-25.54 83.2-24.9L83.2-24.9Q83.2-21.09 83.02-17.36 82.85-13.62 82.85-9.81L82.85-9.81 82.85-7.91Q85.05-8.59 87.64-9.2 90.23-9.81 92.57-9.81L92.57-9.81Q93.4-9.81 94.26-9.72 95.11-9.62 95.77-9.3 96.43-8.98 96.84-8.37 97.26-7.76 97.26-6.74Z" fill="#ffffff" data-fill-palette-color="primary"></path><path d="M126.46-34.28L126.46-34.28Q126.46-33.15 125.75-32.32 125.04-31.49 124.06-30.96L124.06-30.96Q123.19-30.42 122.26-29.81 121.33-29.2 120.55-28.44 119.77-27.69 119.28-26.76 118.79-25.83 118.79-24.66L118.79-24.66Q118.79-23.63 119.28-22.8 119.77-21.97 120.48-21.17 121.18-20.36 122.04-19.51 122.89-18.65 123.6-17.6 124.31-16.55 124.8-15.23 125.28-13.92 125.28-12.16L125.28-12.16Q125.28-10.94 124.77-9.4 124.26-7.86 123.38-6.3 122.5-4.74 121.31-3.27 120.11-1.81 118.77-0.66 117.42 0.49 115.96 1.2 114.49 1.9 113.13 1.9L113.13 1.9Q111.61 1.9 110.44 1.07 109.27 0.24 109.27-1.42L109.27-1.42Q109.27-2.54 109.81-3.49 110.34-4.44 111.12-5.32 111.91-6.2 112.86-7.03 113.81-7.86 114.59-8.69 115.37-9.52 115.91-10.42 116.45-11.33 116.45-12.35L116.45-12.35Q116.45-13.77 115.45-15.26 114.45-16.75 113.22-18.33 112-19.92 111-21.58 110-23.24 110-24.95L110-24.95Q110-27.05 111.12-29.37 112.25-31.69 114.01-33.62 115.76-35.55 117.96-36.82 120.16-38.09 122.31-38.09L122.31-38.09Q124.02-38.09 125.24-37.06 126.46-36.04 126.46-34.28ZM149.31-33.35L149.31-33.35Q149.31-32.13 148.35-31.13 147.4-30.13 146.06-29.37 144.72-28.61 143.3-28.13 141.88-27.64 140.96-27.44L140.96-27.44Q140.57-23.68 140.35-19.95 140.13-16.21 140.13-12.45L140.13-12.45Q140.13-10.45 140.22-8.5 140.32-6.54 140.32-4.59L140.32-4.59Q140.32-3.71 140.15-2.66 139.98-1.61 139.56-0.68 139.15 0.24 138.42 0.88 137.68 1.51 136.61 1.51L136.61 1.51Q135.34 1.51 134.58 0.81 133.83 0.1 133.41-0.93 133-1.95 132.85-3.1 132.7-4.25 132.7-5.18L132.7-5.18Q132.61-8.11 132.56-11.06 132.51-14.01 132.51-16.99L132.51-16.99Q132.51-19.48 132.53-21.88 132.56-24.27 132.56-26.76L132.56-26.76Q131.87-26.66 131.17-26.61 130.46-26.56 129.73-26.56L129.73-26.56Q129.14-26.56 128.19-26.68 127.24-26.81 126.36-27.12 125.48-27.44 124.84-28 124.21-28.56 124.21-29.44L124.21-29.44Q124.21-30.91 125.36-32.01 126.5-33.11 128.29-33.91 130.07-34.72 132.24-35.28 134.41-35.84 136.54-36.16 138.66-36.47 140.44-36.62 142.23-36.77 143.2-36.77L143.2-36.77Q144.13-36.77 145.18-36.69 146.23-36.62 147.16-36.28 148.09-35.94 148.7-35.25 149.31-34.57 149.31-33.35ZM172.94-17.14L172.94-17.14Q172.94-15.14 172.74-13.01 172.55-10.89 172.06-8.89 171.57-6.88 170.71-5.1 169.86-3.32 168.54-1.98 167.22-0.63 165.37 0.15 163.51 0.93 161.02 0.93L161.02 0.93Q157.36 0.93 154.65-0.78 151.94-2.49 150.13-5.15 148.33-7.81 147.45-11.11 146.57-14.4 146.57-17.63L146.57-17.63Q146.57-17.97 146.57-18.26 146.57-18.55 146.62-18.8L146.62-18.8Q146.67-19.82 146.79-21.58 146.91-23.34 147.2-25.34 147.5-27.34 147.96-29.44 148.42-31.54 149.18-33.2 149.94-34.86 151.01-35.94 152.09-37.01 153.55-37.01L153.55-37.01Q154.63-37.01 155.36-36.38 156.09-35.74 156.55-34.79 157.02-33.84 157.21-32.79 157.41-31.74 157.41-30.86L157.41-30.86Q157.41-29.54 157.14-28.2 156.87-26.86 156.63-25.54L156.63-25.54Q156.24-23.44 155.99-21.34 155.75-19.24 155.75-17.04L155.75-17.04Q155.75-15.92 155.87-14.31 155.99-12.7 156.48-11.21 156.97-9.72 157.87-8.67 158.78-7.62 160.34-7.62L160.34-7.62Q161.85-7.62 162.76-8.64 163.66-9.67 164.1-11.08 164.54-12.5 164.66-14.06 164.78-15.63 164.78-16.75L164.78-16.75Q164.78-19.97 164.24-23.12 163.71-26.27 162.83-29.39L162.83-29.39Q162.58-30.22 162.41-31.05 162.24-31.88 162.24-32.71L162.24-32.71Q162.24-34.08 163.05-35.11 163.85-36.13 165.32-36.13L165.32-36.13Q166.54-36.13 167.59-35.18 168.64-34.23 169.47-32.69 170.3-31.15 170.91-29.25 171.52-27.34 171.96-25.46 172.4-23.58 172.62-21.88 172.84-20.17 172.89-19.09L172.89-19.09Q172.94-18.6 172.94-18.14 172.94-17.68 172.94-17.14ZM201.3-21.97L201.3-21.97Q201.3-17.68 199.54-13.7 197.79-9.72 194.83-6.64 191.88-3.56 187.95-1.73 184.02 0.1 179.67 0.1L179.67 0.1 179.57 0.1Q178.7 0.1 178.13-0.71 177.57-1.51 177.18-2.73 176.79-3.96 176.6-5.47 176.4-6.98 176.3-8.42 176.21-9.86 176.21-11.01 176.21-12.16 176.21-12.74L176.21-12.74Q176.21-14.4 176.25-16.04 176.3-17.68 176.4-19.34L176.4-19.34Q176.4-19.87 176.47-20.92 176.55-21.97 176.64-23.29 176.74-24.61 176.89-26.05 177.04-27.49 177.21-28.74 177.38-29.98 177.55-30.93 177.72-31.88 177.96-32.23L177.96-32.23Q178.6-33.3 179.92-34.13 181.23-34.96 182.77-35.5 184.31-36.04 185.9-36.3 187.48-36.57 188.66-36.57L188.66-36.57Q191.88-36.57 194.25-35.38 196.62-34.18 198.2-32.15 199.79-30.13 200.55-27.49 201.3-24.85 201.3-21.97ZM193.1-20.56L193.1-20.56Q193.1-21.63 192.71-22.75 192.32-23.88 191.61-24.8 190.9-25.73 189.9-26.29 188.9-26.86 187.68-26.86L187.68-26.86Q186.65-26.86 185.58-26.37L185.58-26.37Q185.34-26.22 185.14-25.46 184.95-24.71 184.82-23.63 184.7-22.56 184.6-21.29 184.51-20.02 184.48-18.87 184.46-17.72 184.43-16.85 184.41-15.97 184.41-15.67L184.41-15.67Q184.41-15.19 184.41-14.23 184.41-13.28 184.48-12.35 184.55-11.43 184.65-10.74 184.75-10.06 184.99-10.06L184.99-10.06Q186.46-10.06 187.9-11.21 189.34-12.35 190.51-14.01 191.68-15.67 192.39-17.48 193.1-19.29 193.1-20.56ZM220.39-33.15L220.39-33.15Q220.39-32.23 219.98-31.49 219.56-30.76 218.88-30.25 218.19-29.74 217.36-29.39 216.53-29.05 215.75-28.91L215.75-28.91Q215.66-23.39 215.34-18.26 215.02-13.13 214.34-7.67L214.34-7.67 214.63-7.67Q215.41-7.67 216.17-7.5 216.93-7.32 217.54-6.91 218.15-6.49 218.51-5.88 218.88-5.27 218.88-4.39L218.88-4.39Q218.88-3.27 218.17-2.44 217.46-1.61 216.31-1.03 215.17-0.44 213.75-0.05 212.34 0.34 210.92 0.56 209.5 0.78 208.23 0.88 206.96 0.98 206.18 0.98L206.18 0.98Q205.6 0.98 204.74 0.93 203.89 0.88 203.13 0.63 202.37 0.39 201.84-0.1 201.3-0.59 201.3-1.42L201.3-1.42Q201.3-2.44 201.72-3.25 202.13-4.05 202.81-4.69 203.5-5.32 204.35-5.71 205.21-6.1 206.09-6.3L206.09-6.3Q206.43-8.98 206.72-11.65 207.01-14.31 207.11-17.04L207.11-17.04Q207.21-19.82 207.31-22.53 207.4-25.24 207.5-27.98L207.5-27.98Q207.16-27.93 206.87-27.91 206.57-27.88 206.33-27.88L206.33-27.88Q205.65-27.88 204.86-28.03 204.08-28.17 203.4-28.54 202.72-28.91 202.25-29.44 201.79-29.98 201.79-30.81L201.79-30.81Q201.79-32.47 203.18-33.54 204.57-34.62 206.5-35.21 208.43-35.79 210.43-36.01 212.43-36.23 213.65-36.23L213.65-36.23Q214.34-36.23 215.46-36.13 216.58-36.04 217.68-35.69 218.78-35.35 219.59-34.77 220.39-34.18 220.39-33.15ZM232.25 1.61L232.25 1.61Q229.28 1.61 227.08 0.12 224.88-1.37 223.44-3.88 222-6.4 221.29-9.72 220.58-13.04 220.58-16.7L220.58-16.7Q220.58-20.12 221.34-23.63 222.1-27.15 223.66-29.98 225.22-32.81 227.62-34.62 230.01-36.43 233.33-36.43L233.33-36.43Q236.55-36.43 238.72-34.69 240.9-32.96 242.19-30.2 243.49-27.44 244.05-24.02 244.61-20.61 244.61-17.19L244.61-17.19Q244.61-13.38 243.85-9.99 243.09-6.59 241.56-4 240.02-1.42 237.7 0.1 235.38 1.61 232.25 1.61ZM232.84-25.63L232.84-25.63Q231.91-25.63 231.25-24.9 230.59-24.17 230.16-22.97 229.72-21.78 229.52-20.29 229.33-18.8 229.33-17.29L229.33-17.29Q229.33-15.58 229.54-13.87 229.76-12.16 230.2-10.79 230.64-9.42 231.3-8.59 231.96-7.76 232.89-7.76L232.89-7.76Q233.96-7.76 234.6-8.84 235.23-9.91 235.6-11.43 235.97-12.94 236.09-14.55 236.21-16.16 236.21-17.24L236.21-17.24Q236.21-18.55 236.04-20.02 235.87-21.48 235.48-22.73 235.09-23.97 234.45-24.8 233.82-25.63 232.84-25.63Z" fill="#00d1cd" data-fill-palette-color="secondary"></path></g></svg></g></svg></g></svg></g></svg></g><g><svg viewBox="0 0 156.44833725967223 156.44833725967223" height="156.44833725967223" width="156.44833725967223"><g><svg></svg></g><g id="icon-0"><svg viewBox="0 0 156.44833725967223 156.44833725967223" height="156.44833725967223" width="156.44833725967223"><g><path d="M0 78.224c0-43.202 35.022-78.224 78.224-78.224 43.202 0 78.224 35.022 78.224 78.224 0 43.202-35.022 78.224-78.224 78.224-43.202 0-78.224-35.022-78.224-78.224zM78.224 150.542c39.94 0 72.318-32.378 72.318-72.318 0-39.94-32.378-72.318-72.318-72.318-39.94 0-72.318 32.378-72.318 72.318 0 39.94 32.378 72.318 72.318 72.318z" data-fill-palette-color="accent" fill="#00d1cd" stroke="transparent"></path></g><g transform="matrix(1,0,0,1,35.72974940476177,35.72974571203401)"><svg viewBox="0 0 84.98883845014869 84.98884583560421" height="84.98884583560421" width="84.98883845014869"><g><svg xmlns="http://www.w3.org/2000/svg" xmlns:xlink="http://www.w3.org/1999/xlink" version="1.1" x="0" y="0" viewBox="4.474002838134766 7.203999996185303 87.79598999023438 87.7959976196289" enable-background="new 0 0 100 100" xml:space="preserve" height="84.98884583560421" width="84.98883845014869" class="icon-s-0" data-fill-palette-color="accent" id="s-0"><path d="M48.372 7.204c-24.244 0-43.898 19.654-43.898 43.898C4.474 75.346 24.128 95 48.372 95 72.616 95 92.27 75.346 92.27 51.102 92.27 26.858 72.616 7.204 48.372 7.204zM65.115 24.756c2.652-2.656 6.957-2.656 9.609-0.004 2.655 2.656 2.652 6.957 0 9.61-2.652 2.654-6.954 2.654-9.612 0C62.462 31.711 62.462 27.405 65.115 24.756zM67.003 51.101c0.001 1.879-1.521 3.398-3.398 3.398-1.874 0.001-3.396-1.519-3.396-3.398-0.002-1.874 1.52-3.396 3.397-3.395C65.482 47.705 67.004 49.227 67.003 51.101zM56.742 37.928c1.326-1.326 3.479-1.326 4.805 0 1.328 1.328 1.326 3.479 0 4.805-1.326 1.326-3.477 1.328-4.805 0C55.416 41.407 55.416 39.254 56.742 37.928zM48.372 13.837c3.757 0 6.796 3.046 6.796 6.796s-3.039 6.796-6.796 6.796c-3.751 0-6.793-3.046-6.793-6.796S44.621 13.837 48.372 13.837zM48.372 46.274c-0.765 0-1.386-0.621-1.386-1.386 0-0.765 0.62-1.386 1.386-1.386 0.766 0 1.386 0.621 1.386 1.386C49.758 45.653 49.138 46.274 48.372 46.274zM49.758 57.317c0 0.765-0.62 1.385-1.386 1.385-0.765 0-1.386-0.62-1.386-1.385 0-0.765 0.62-1.386 1.386-1.386C49.138 55.931 49.758 56.552 49.758 57.317zM48.372 39.267c-1.874 0-3.396-1.523-3.395-3.397-0.001-1.877 1.52-3.398 3.395-3.398 1.878 0 3.397 1.522 3.397 3.397C51.771 37.744 50.25 39.265 48.372 39.267zM44.958 47.688c-0.542 0.541-1.419 0.541-1.96 0-0.541-0.541-0.542-1.418 0-1.96 0.541-0.541 1.419-0.541 1.96 0C45.498 46.269 45.498 47.147 44.958 47.688zM44.957 54.516c0.542 0.542 0.542 1.419 0 1.96-0.541 0.541-1.418 0.542-1.96 0-0.541-0.54-0.541-1.418 0-1.959C43.539 53.975 44.417 53.975 44.957 54.516zM48.372 62.939c1.879 0 3.399 1.522 3.397 3.397 0.001 1.876-1.518 3.398-3.397 3.397-1.874 0.001-3.396-1.521-3.396-3.396C44.976 64.459 46.497 62.937 48.372 62.939zM51.787 54.516c0.54-0.541 1.418-0.541 1.959 0.001 0.542 0.541 0.542 1.419 0.001 1.959-0.542 0.542-1.419 0.541-1.96 0C51.245 55.936 51.245 55.058 51.787 54.516zM51.786 47.688c-0.54-0.541-0.54-1.419 0.001-1.959 0.541-0.542 1.419-0.542 1.96-0.001 0.542 0.542 0.541 1.419 0 1.96C53.205 48.229 52.328 48.229 51.786 47.688zM35.199 37.928c1.328-1.328 3.479-1.326 4.805 0 1.326 1.326 1.328 3.477 0 4.805-1.326 1.326-3.478 1.325-4.804-0.001C33.874 41.406 33.873 39.254 35.199 37.928zM36.537 51.101c-0.002 1.878-1.522 3.399-3.398 3.398-1.876 0-3.397-1.52-3.397-3.398 0-1.875 1.522-3.397 3.397-3.397C35.014 47.706 36.536 49.228 36.537 51.101zM22.02 24.751c2.652-2.652 6.957-2.652 9.609 0 2.652 2.653 2.652 6.96 0.004 9.61-2.659 2.654-6.96 2.654-9.613 0C19.368 31.709 19.365 27.408 22.02 24.751zM11.105 51.104c0-3.751 3.045-6.796 6.796-6.796s6.796 3.046 6.796 6.796c0 3.757-3.045 6.796-6.796 6.796S11.105 54.861 11.105 51.104zM31.629 77.452c-2.652 2.655-6.954 2.659-9.609 0-2.652-2.649-2.652-6.954 0-9.606 2.655-2.656 6.96-2.656 9.609-0.003C34.288 70.501 34.285 74.803 31.629 77.452zM40.003 64.277c-1.326 1.326-3.477 1.328-4.805 0-1.326-1.326-1.326-3.479 0-4.805 1.326-1.326 3.479-1.326 4.805 0C41.332 60.8 41.329 62.95 40.003 64.277zM40.771 51.102c0-0.765 0.621-1.386 1.386-1.386 0.765 0 1.386 0.621 1.386 1.386 0 0.766-0.621 1.386-1.386 1.386C41.392 52.488 40.771 51.869 40.771 51.102zM48.372 88.367c-3.751 0-6.793-3.041-6.793-6.792 0-3.752 3.042-6.796 6.793-6.796 3.757 0 6.796 3.044 6.796 6.796C55.168 85.326 52.129 88.367 48.372 88.367zM54.587 52.488c-0.765 0-1.386-0.62-1.386-1.386 0-0.765 0.621-1.386 1.386-1.386 0.765 0 1.386 0.621 1.386 1.386C55.973 51.869 55.352 52.488 54.587 52.488zM61.546 64.275c-1.326 1.326-3.477 1.326-4.802 0-1.326-1.326-1.327-3.478-0.001-4.804 1.328-1.328 3.479-1.326 4.805 0C62.873 60.798 62.874 62.947 61.546 64.275zM74.723 77.452c-2.655 2.659-6.956 2.655-9.612 0-2.652-2.649-2.655-6.952 0.003-9.609 2.649-2.653 6.954-2.653 9.606 0.003C77.376 70.498 77.376 74.803 74.723 77.452zM78.843 57.899c-3.75 0-6.796-3.038-6.796-6.796 0-3.751 3.046-6.796 6.796-6.796 3.751 0 6.796 3.046 6.796 6.796C85.639 54.861 82.594 57.899 78.843 57.899z" fill="#00d1cd" data-fill-palette-color="accent"></path></svg></g></svg></g></svg></g></svg></g></svg></g><defs></defs></svg><rect width="395.52" height="106.1576602412587" fill="none" stroke="none" visibility="hidden"></rect></g></svg></g></svg>